<?xml version="1.0" encoding="utf-8"?>
<!-- Generator: Adobe Illustrator 22.0.1, SVG Export Plug-In . SVG Version: 6.00 Build 0)  -->
<svg version="1.1" id="Camada_1" xmlns="http://www.w3.org/2000/svg" xmlns:xlink="http://www.w3.org/1999/xlink" x="0px" y="0px"
	 viewBox="0 0 350 150" style="enable-background:new 0 0 350 150;" xml:space="preserve">
<style type="text/css">
	.st0{fill:#FFFFFF;}
	.st1{fill:#8E9AA1;}
	.st2{fill:#D1DCE3;}
</style>
<rect x="-0.1" y="0" class="st0" width="350.1" height="150"/>
<g>
	<path class="st1" d="M159.6,49.8c4,0,7.2,3.2,7.2,7.2s-3.2,7.2-7.2,7.2s-7.2-3.2-7.2-7.2C152.5,53.1,155.7,49.8,159.6,49.8"/>
	<path class="st2" d="M159.6,51.9c2.8,0,5.1,2.3,5.1,5.1c0,2.8-2.3,5.1-5.1,5.1c-2.8,0-5.1-2.3-5.1-5.1
		C154.5,54.2,156.8,51.9,159.6,51.9"/>
	<path class="st1" d="M205,105.6h8v1.5h-8V105.6z M194.1,105.6h8.2v1.5h-8.2V105.6z M156.1,105.6h35.5v1.5h-35.5V105.6z M137,105.6
		h14v1.5h-14V105.6z"/>
	<path class="st1" d="M200.9,62.1V46.9h-16V43h18h2v2v17.1H200.9L200.9,62.1z M185.5,81.1h15.4V65.9h3.9V83v2h-2h-17.3L185.5,81.1
		L185.5,81.1z M167.5,81.1h15V85h-15V81.1z M149.1,65.9V81h15.4v3.9h-17.3h-2v-2v-17H149.1z M147.2,43.1h18V47h-16v15.1h-3.9V44.9
		v-2L147.2,43.1z"/>
	<polygon class="st2" points="200.9,81.1 150.8,81.1 171.1,67.3 176.3,72.6 200.9,55.1 	"/>
</g>
</svg>
