<?xml version="1.0" encoding="utf-8"?>
<!-- Generator: Adobe Illustrator 22.0.1, SVG Export Plug-In . SVG Version: 6.00 Build 0)  -->
<svg version="1.1" id="Camada_1" xmlns="http://www.w3.org/2000/svg" xmlns:xlink="http://www.w3.org/1999/xlink" x="0px" y="0px"
	 viewBox="0 0 200 200" style="enable-background:new 0 0 200 200;" xml:space="preserve">
<style type="text/css">
	.st0{fill:#FFFFFF;}
	.st1{fill:#8E9AA1;}
	.st2{fill:#D1DCE3;}
</style>
<rect class="st0" width="200" height="200"/>
<g>
	<path class="st1" d="M77.9,63.9c5.7,0,10.3,4.6,10.3,10.3s-4.6,10.3-10.3,10.3s-10.3-4.6-10.3-10.3C67.8,68.6,72.3,63.9,77.9,63.9"
		/>
	<path class="st2" d="M77.9,66.9c4,0,7.3,3.3,7.3,7.3c0,4-3.3,7.3-7.3,7.3s-7.3-3.3-7.3-7.3C70.6,70.2,73.9,66.9,77.9,66.9"/>
	<path class="st1" d="M143,143.9h11.5v2.1H143V143.9z M127.4,143.9h11.8v2.1h-11.8V143.9z M72.9,143.9h50.9v2.1H72.9V143.9z
		 M45.5,143.9h20.1v2.1H45.5V143.9z"/>
	<path class="st1" d="M137.1,81.5V59.7h-22.9v-5.6H140h2.9V57v24.5H137.1L137.1,81.5z M115,108.7h22.1V87h5.6v24.5v2.9h-2.9H115
		L115,108.7L115,108.7z M89.3,108.7h21.5v5.6H89.3V108.7z M62.9,87v21.6H85v5.6H60.2h-2.9v-2.9V87H62.9z M60.2,54.3H86v5.6H63v21.6
		h-5.6V56.9V54L60.2,54.3z"/>
	<polygon class="st2" points="137.1,108.7 65.3,108.7 94.4,89 101.9,96.6 137.1,71.5 	"/>
</g>
</svg>
